<svg id="Calque_1" data-name="Calque 1" xmlns="http://www.w3.org/2000/svg" viewBox="0 0 635.96 245.04"><defs><style>.cls-1{fill:#09afea;}.cls-2{fill:#fff;}</style></defs><title>bouton_recommencer_autre_haut</title><path class="cls-1" d="M571.74,215.22H64.36A64.22,64.22,0,0,1,.14,151V64.22A64.22,64.22,0,0,1,64.36,0H571.74A64.22,64.22,0,0,1,636,64.22V151a64.22,64.22,0,0,1-64.22,64.22"/><path class="cls-2" d="M73.76,124.9H58.25V22.84h25.1c10.43,0,15.5,4.25,15.5,15.78V56.72c0,8.51-4,11.93-6.72,13,3.43,1.51,6.72,4.12,6.72,11.11v35.81a15.56,15.56,0,0,0,1.51,7.54v.69H85c-.69-1.1-1.51-2.88-1.51-8.37V85.81c0-4.53-.82-6.45-5.76-6.45h-4Zm0-60.09h4.12c4.25,0,5.63-2.74,5.63-7.27V43.28c0-4.39-.82-6.58-5.62-6.58H73.76Z"/><polygon class="cls-2" points="140.01 22.84 140.01 37.65 120.26 37.65 120.26 64.41 135.76 64.41 135.76 79.91 120.26 79.91 120.26 109.4 140.84 109.4 140.84 124.9 104.76 124.9 104.76 22.84 140.01 22.84"/><path class="cls-2" d="M170.06,80.46h15.23v23.6c0,11-3.71,22.09-18.52,22.09h-3.43c-15.77,0-19.07-11.25-19.07-21.54V42.32c0-10.43,4.53-20.44,18.52-20.44h3.57c17,0,18.93,11.25,18.93,21.26V61.39H170.06v-18c0-4.39-1.37-6.72-5.21-6.72s-4.8,2.2-4.8,6.72v60.63q0,7,4.94,7c3.7,0,5.08-2.61,5.08-6.86Z"/><path class="cls-2" d="M232.75,102.13c0,14.27-4.8,24-19.75,24h-2.61c-14.82,0-20-9.74-20-24V45.34c0-14.27,5.21-23.46,19.89-23.46h2.61c15.09,0,19.89,9.33,19.89,23.32ZM217,44.51q0-7.82-5.35-7.82c-4,0-5.49,2.47-5.49,7.82v58.71c0,4.39,1.23,7.82,5.63,7.82s5.21-3.43,5.21-7.82Z"/><polygon class="cls-2" points="238.65 22.84 258.54 22.84 265.95 76.75 273.49 22.84 292.01 22.84 292.01 124.9 277.47 124.9 277.47 58.92 268.14 124.9 261.97 124.9 252.5 58.92 252.5 124.9 238.65 124.9 238.65 22.84"/><polygon class="cls-2" points="298.32 22.84 318.21 22.84 325.62 76.75 333.17 22.84 351.69 22.84 351.69 124.9 337.14 124.9 337.14 58.92 327.81 124.9 321.64 124.9 312.18 58.92 312.18 124.9 298.32 124.9 298.32 22.84"/><polygon class="cls-2" points="393.25 22.84 393.25 37.65 373.5 37.65 373.5 64.41 389 64.41 389 79.91 373.5 79.91 373.5 109.4 394.07 109.4 394.07 124.9 357.99 124.9 357.99 22.84 393.25 22.84"/><polygon class="cls-2" points="412.59 22.84 425.9 77.58 425.9 22.84 440.03 22.84 440.03 124.9 427.41 124.9 412.59 66.19 412.59 124.9 398.6 124.9 398.6 22.84 412.59 22.84"/><path class="cls-2" d="M471.72,80.46h15.23v23.6c0,11-3.71,22.09-18.52,22.09H465c-15.78,0-19.07-11.25-19.07-21.54V42.32c0-10.43,4.53-20.44,18.52-20.44H468c17,0,18.93,11.25,18.93,21.26V61.39H471.72v-18c0-4.39-1.37-6.72-5.21-6.72s-4.8,2.2-4.8,6.72v60.63q0,7,4.94,7c3.7,0,5.08-2.61,5.08-6.86Z"/><polygon class="cls-2" points="527.69 22.84 527.69 37.65 507.93 37.65 507.93 64.41 523.43 64.41 523.43 79.91 507.93 79.91 507.93 109.4 528.51 109.4 528.51 124.9 492.43 124.9 492.43 22.84 527.69 22.84"/><path class="cls-2" d="M548.54,124.9H533V22.84h25.1c10.43,0,15.5,4.25,15.5,15.78V56.72c0,8.51-4,11.93-6.72,13,3.43,1.51,6.72,4.12,6.72,11.11v35.81a15.56,15.56,0,0,0,1.51,7.54v.69H559.79c-.69-1.1-1.51-2.88-1.51-8.37V85.81c0-4.53-.82-6.45-5.76-6.45h-4Zm0-60.09h4.12c4.25,0,5.62-2.74,5.62-7.27V43.28c0-4.39-.82-6.58-5.62-6.58h-4.12Z"/><path class="cls-2" d="M67.31,182.32h-6.1l-1,10.28H52.76l6.68-54.66h9.85l7.13,54.66h-8Zm-5.22-8.15h4.33L64.22,154Z"/><polygon class="cls-2" points="74.21 137.94 82.66 137.94 86.4 175.56 90.22 137.94 98.09 137.94 91.18 192.6 81.11 192.6 74.21 137.94"/><polygon class="cls-2" points="118.73 137.94 118.73 145.88 108.15 145.88 108.15 160.2 116.45 160.2 116.45 168.51 108.15 168.51 108.15 184.3 119.17 184.3 119.17 192.6 99.85 192.6 99.85 137.94 118.73 137.94"/><path class="cls-2" d="M134.81,168.8H143v12.64c0,5.88-2,11.83-9.92,11.83h-1.84c-8.45,0-10.21-6-10.21-11.53V148.38c0-5.58,2.42-10.95,9.92-10.95h1.91c9.11,0,10.14,6,10.14,11.39v9.77h-8.15V149c0-2.35-.73-3.6-2.79-3.6s-2.57,1.18-2.57,3.6v32.47q0,3.75,2.64,3.75c2,0,2.72-1.4,2.72-3.67Z"/><path class="cls-2" d="M153.25,137.94h8.45v43.27c0,2.35.81,3.89,2.65,3.89s2.72-1.47,2.72-3.89V137.94h8.45V180.7c0,7.71-3.08,12.56-10.43,12.56h-1.47c-7.35,0-10.36-4.63-10.36-12.56Z"/><polygon class="cls-2" points="186.24 137.94 193.36 167.26 193.36 137.94 200.93 137.94 200.93 192.6 194.17 192.6 186.24 161.16 186.24 192.6 178.74 192.6 178.74 137.94 186.24 137.94"/><path class="cls-2" d="M224.58,182.32h-6.1l-1,10.28H210l6.68-54.66h9.84l7.13,54.66h-8Zm-5.22-8.15h4.33L221.5,154Z"/><path class="cls-2" d="M234.79,137.94h8.45v43.27c0,2.35.81,3.89,2.64,3.89s2.72-1.47,2.72-3.89V137.94h8.45V180.7c0,7.71-3.08,12.56-10.43,12.56h-1.47c-7.35,0-10.36-4.63-10.36-12.56Z"/><polygon class="cls-2" points="281.44 137.94 281.44 145.88 274.46 145.88 274.46 192.6 266.23 192.6 266.23 145.88 259.25 145.88 259.25 137.94 281.44 137.94"/><path class="cls-2" d="M292.09,192.6h-8.3V137.94h13.44c5.58,0,8.3,2.28,8.3,8.45v9.7c0,4.55-2.13,6.39-3.6,7,1.84.81,3.6,2.2,3.6,5.95v19.18a8.31,8.31,0,0,0,.81,4v.37h-8.23c-.37-.59-.81-1.54-.81-4.48V171.66c0-2.43-.44-3.45-3.08-3.45h-2.13Zm0-32.18h2.2c2.28,0,3-1.47,3-3.89v-7.64c0-2.35-.44-3.53-3-3.53h-2.2Z"/><polygon class="cls-2" points="327.57 137.94 327.57 145.88 316.99 145.88 316.99 160.2 325.29 160.2 325.29 168.51 316.99 168.51 316.99 184.3 328.01 184.3 328.01 192.6 308.69 192.6 308.69 137.94 327.57 137.94"/><path class="cls-2" d="M346.23,169.9v22.7h-8.3V137.94h13.15c5.88,0,8.52,2.5,8.52,9v12.93c0,6.46-2.87,10-8.52,10Zm0-7.86h2.13c2.57,0,2.86-1.69,2.86-4v-9c0-2.13-.44-3.75-2.86-3.75h-2.13Z"/><polygon class="cls-2" points="381.27 137.94 381.27 145.88 370.69 145.88 370.69 160.2 378.99 160.2 378.99 168.51 370.69 168.51 370.69 184.3 381.71 184.3 381.71 192.6 362.39 192.6 362.39 137.94 381.27 137.94"/><path class="cls-2" d="M392.43,192.6h-8.3V137.94h13.45c5.58,0,8.3,2.28,8.3,8.45v9.7c0,4.55-2.13,6.39-3.6,7,1.84.81,3.6,2.2,3.6,5.95v19.18a8.31,8.31,0,0,0,.81,4v.37h-8.23c-.37-.59-.81-1.54-.81-4.48V171.66c0-2.43-.44-3.45-3.09-3.45h-2.13Zm0-32.18h2.2c2.28,0,3-1.47,3-3.89v-7.64c0-2.35-.44-3.53-3-3.53h-2.2Z"/><path class="cls-2" d="M420.57,137.43c6.83,0,9.48,3,9.48,9.48v9h-8V148c0-1.84-.37-3.23-2.35-3.23s-2.42,1.25-2.42,3.82v1c0,3.09.59,4.77,3.38,8.38l5.29,6.83c3.75,4.85,4.92,7.57,4.92,13.81v1.76c0,8-3.38,12.78-10.72,12.78h-1.62c-6.68,0-10.14-3.6-10.14-10.36V171.89h8.23v9.55c0,2.57.88,3.82,2.72,3.82S422,184,422,180.55v-1.25c0-4-.37-5.22-3.38-9.18l-5.29-6.76c-3.53-4.56-4.55-8.08-4.55-13.52v-1.76c0-7.35,3.67-10.65,10.21-10.65Z"/><path class="cls-2" d="M456,180.41c0,7.64-2.57,12.86-10.58,12.86H444c-7.93,0-10.73-5.21-10.73-12.86V150c0-7.64,2.79-12.56,10.65-12.56h1.4c8.08,0,10.65,5,10.65,12.49Zm-8.45-30.86q0-4.19-2.87-4.19c-2.13,0-2.94,1.32-2.94,4.19V181c0,2.35.66,4.19,3,4.19s2.79-1.84,2.79-4.19Z"/><polygon class="cls-2" points="466.63 137.94 473.75 167.26 473.75 137.94 481.32 137.94 481.32 192.6 474.56 192.6 466.63 161.16 466.63 192.6 459.13 192.6 459.13 137.94 466.63 137.94"/><polygon class="cls-2" points="492.19 137.94 499.32 167.26 499.32 137.94 506.88 137.94 506.88 192.6 500.13 192.6 492.19 161.16 492.19 192.6 484.7 192.6 484.7 137.94 492.19 137.94"/><path class="cls-2" d="M523,182.32h-6.1l-1,10.28H508.5l6.68-54.66H525l7.13,54.66h-8Zm-5.22-8.15h4.33L520,154Z"/><path class="cls-2" d="M541.26,193.34c-4.92,0-7.94-4.33-7.94-10V149.19c0-6.1,2.28-11.75,10.21-11.75h1.62c8.89,0,9.92,5.8,9.92,12.27v5.58H547v-6.17c0-2.42-.59-3.75-2.64-3.75-1.69,0-2.57,1.25-2.57,3.75v32c0,2.57.88,3.89,2.72,3.89,2.13,0,3.08-1.47,3.08-3.53V167.77h-3.75V159.4h11.61V192.6h-4.7c-.07-.29-.74-3-1.4-5.36-.59,1.84-3.38,6.1-7.57,6.1Z"/><polygon class="cls-2" points="577.48 137.94 577.48 145.88 566.9 145.88 566.9 160.2 575.2 160.2 575.2 168.51 566.9 168.51 566.9 184.3 577.92 184.3 577.92 192.6 558.6 192.6 558.6 137.94 577.48 137.94"/></svg>